<?xml version="1.0" standalone="no"?>
<!DOCTYPE svg PUBLIC "-//W3C//DTD SVG 20010904//EN"
 "http://www.w3.org/TR/2001/REC-SVG-20010904/DTD/svg10.dtd">
<svg version="1.0" xmlns="http://www.w3.org/2000/svg"
 width="260.000000pt" height="260.000000pt" viewBox="0 0 260.000000 260.000000"
 preserveAspectRatio="xMidYMid meet">
<metadata>
Created by potrace 1.11, written by Peter Selinger 2001-2013
</metadata>
<g transform="translate(0.000000,260.000000) scale(0.100000,-0.100000)"
fill="#000000" stroke="none">
<path d="M1620 2065 c-110 -65 -192 -95 -269 -99 -49 -2 -73 1 -153 20 -53 12
-69 16 -133 29 -69 13 -237 14 -300 1 -60 -13 -161 -72 -215 -126 -66 -66 -85
-93 -141 -196 -88 -166 -161 -244 -268 -284 -50 -20 -51 -20 -83 -20 -21 -1
-22 -2 -5 -14 9 -7 17 -17 17 -22 0 -5 16 -22 35 -37 20 -16 33 -32 30 -37 -3
-4 2 -11 11 -14 8 -3 13 -10 10 -15 -3 -5 1 -12 10 -15 9 -4 14 -9 11 -12 -3
-3 8 -20 24 -36 16 -17 29 -36 29 -42 0 -6 9 -18 19 -26 11 -7 18 -17 15 -22
-3 -4 0 -8 6 -8 6 0 8 -4 5 -10 -3 -5 0 -7 8 -5 7 3 26 -9 42 -27 16 -18 28
-33 25 -33 -2 0 8 -13 23 -29 15 -16 24 -34 20 -40 -3 -6 -3 -8 1 -4 10 8 47
-23 40 -34 -3 -5 -2 -8 3 -7 4 1 15 1 23 0 13 -1 13 -2 0 -11 -11 -8 -7 -9 14
-4 23 6 27 4 21 -7 -6 -11 -5 -12 6 -1 20 18 33 15 18 -5 -12 -16 -12 -17 2
-6 9 7 20 9 24 5 5 -4 5 -1 1 5 -5 9 0 13 14 13 11 0 23 -7 27 -16 5 -13 7
-13 14 -2 7 10 9 9 9 -4 0 -9 5 -20 12 -24 7 -5 8 -3 3 6 -5 7 -4 11 1 7 5 -3
18 -23 29 -44 11 -21 24 -41 30 -45 6 -5 5 -11 -3 -17 -11 -7 -10 -9 3 -14 11
-5 14 -3 9 6 -5 8 -2 8 9 -2 9 -7 14 -17 11 -22 -3 -5 2 -9 11 -9 9 0 13 -4
10 -10 -3 -5 1 -10 10 -10 9 0 13 -4 10 -10 -3 -5 3 -10 14 -10 12 0 21 -5 21
-11 0 -5 4 -8 9 -5 5 3 12 -1 15 -10 5 -13 9 -14 21 -4 8 7 16 10 16 6 1 -3 2
-10 3 -15 0 -5 5 -13 9 -18 5 -4 8 -3 7 2 -5 22 1 27 17 14 9 -8 14 -9 11 -4
-4 6 4 10 20 9 15 -1 40 -3 55 -3 20 -1 26 -5 21 -13 -6 -10 -4 -10 7 0 15 14
33 16 25 3 -7 -11 13 -9 32 2 8 6 12 2 13 -10 0 -10 3 -13 5 -6 7 16 65 5 81
-15 12 -16 13 -16 7 1 -7 20 -4 20 30 7 19 -7 26 -6 26 3 0 8 3 7 9 -3 6 -8 7
-18 4 -24 -3 -5 -1 -6 6 -2 6 4 9 12 6 17 -3 5 0 7 7 4 7 -2 31 -7 53 -9 56
-7 68 -10 84 -20 10 -7 12 -5 6 3 -5 10 5 12 43 9 32 -3 49 -1 45 6 -4 6 1 7
13 2 10 -4 16 -4 12 -1 -7 7 51 61 96 89 19 12 26 14 21 5 -3 -8 0 -6 9 5 10
12 23 17 40 14 19 -4 23 -1 18 11 -5 14 -4 14 13 1 14 -11 17 -12 11 -1 -6 9
-5 12 5 9 8 -3 13 -11 11 -17 -1 -7 2 -10 8 -6 6 3 8 10 5 15 -3 4 2 10 10 14
8 3 15 1 15 -4 0 -6 5 -10 11 -10 5 0 8 4 5 8 -3 5 1 9 9 9 8 0 15 -5 15 -11
0 -6 5 -4 10 4 9 13 10 13 10 0 0 -13 1 -13 10 0 9 13 10 13 11 0 1 -8 1 -19
0 -24 -1 -5 6 -3 15 5 19 16 55 13 66 -5 5 -7 8 -7 8 3 0 9 6 7 19 -8 13 -14
20 -18 23 -10 3 10 10 9 26 -3 12 -8 19 -18 15 -22 -4 -4 1 -4 10 0 19 7 97
-25 97 -39 0 -5 5 -5 10 -2 6 3 10 2 10 -4 0 -6 7 -8 15 -5 9 4 15 0 15 -7 0
-9 3 -10 8 -4 9 13 35 18 27 5 -12 -19 7 -10 27 13 11 12 17 16 13 10 -3 -7
-1 -13 5 -13 7 0 9 7 6 16 -3 9 -3 21 1 27 10 15 13 31 17 92 4 56 14 87 26
80 4 -3 7 3 6 12 0 10 4 18 11 18 6 0 15 4 20 9 5 5 3 6 -4 2 -7 -4 -13 -2
-13 3 0 6 4 11 9 11 5 0 16 6 23 13 26 23 79 49 93 43 7 -2 19 2 25 9 7 8 17
12 24 8 6 -3 8 -3 4 2 -4 4 2 16 13 26 26 23 37 97 19 138 -18 45 -56 56 -137
41 -105 -20 -185 -17 -221 8 -31 23 -60 82 -40 82 7 0 7 4 0 13 -12 14 -11 35
2 56 7 10 6 12 -4 6 -10 -6 -11 -4 -4 6 5 8 7 22 5 33 -2 13 1 16 11 11 10 -6
10 -5 1 5 -8 9 -9 19 -2 32 5 10 7 18 3 18 -3 0 -2 6 3 13 15 18 8 147 -9 187
-9 19 -46 71 -83 115 -59 70 -92 114 -130 174 -6 9 -23 35 -38 58 -14 23 -28
47 -29 54 -4 15 -38 50 -68 69 -48 30 -79 24 -180 -35z"/>
<path d="M2406 902 c-3 -5 1 -9 9 -9 8 0 12 4 9 9 -3 4 -7 8 -9 8 -2 0 -6 -4
-9 -8z"/>
<path d="M1650 679 c0 -5 5 -7 10 -4 6 3 10 8 10 11 0 2 -4 4 -10 4 -5 0 -10
-5 -10 -11z"/>
<path d="M1590 649 c0 -5 5 -7 10 -4 6 3 10 8 10 11 0 2 -4 4 -10 4 -5 0 -10
-5 -10 -11z"/>
<path d="M930 620 c0 -5 5 -10 11 -10 5 0 7 5 4 10 -3 6 -8 10 -11 10 -2 0 -4
-4 -4 -10z"/>
<path d="M1305 559 c-3 -4 2 -6 10 -5 21 3 28 13 10 13 -9 0 -18 -4 -20 -8z"/>
<path d="M1410 559 c0 -5 5 -7 10 -4 6 3 10 8 10 11 0 2 -4 4 -10 4 -5 0 -10
-5 -10 -11z"/>
</g>
</svg>
